/* XPM */
static char *dummy[]={
"32 32 3 1",
". c #000000",
"a c #00e6ff",
"# c #e9ff00",
"................................",
"................................",
"................................",
"................................",
"................................",
"................................",
"................................",
"................................",
"................................",
"...............#................",
"..............###...............",
"............##aaa##.............",
"...........#aaaaaaa#............",
"..........#aaa###aaa#...........",
".........#aa#######aa#...#####..",
".........#aaa#####aaa#..#aaaa#..",
".........#aaaaaaaaaaa#.#a###a#..",
".........#aaaaaaaaaaa##a####a#..",
".........#aa##aaa##aa#a####aa#..",
"...####..#aa#######aaa####aaa#..",
"...#aaa#.#aa#######aaa###aaa#...",
"...#a##a##aa#######aa###aaa#....",
"...#aa##a#aa#######aa##aaa#.....",
"...#aaa##aaa#######aaaaaa#......",
"....#aaa##aa#######aaaaa#.......",
"....#aaaaaaa#######aaaaa#.......",
".....#aaaaaa#######aaaa#........",
"......#aaaaa#######aaa#.........",
"......#aaaaa#######aaa#.........",
".......#aaaaa#####aaa#..........",
"........#aaaaa###aaaa#..........",
"........#aaaaaaaaaaaa#.........."};
